# xmcd
#
# Track frame offsets: 
#        150
#        29017
#        59257
#        90805
#        152508
#        170919
#        189521
#
# Disc length: 2756 seconds
#
# Revision: 0
# Processed by: cddbd v1.5.2PL0 Copyright (c) Steve Scherf et al.
# Submitted via: ExactAudioCopyFreeDBPlugin 1.0
#
DISCID=510ac207
DTITLE=Chris Farlowe and The Thunderbirds - Bursting Over Bremen
DYEAR=1985
DGENRE=Rock
TTITLE0=Watching The River Flow (Live '85)
TTITLE1=Jealous Kind (Live '85)
TTITLE2=Satsify Susie (Live '85)
TTITLE3=Stormy Monday (Live '85)
TTITLE4=Watch Your Step (Live '85)
TTITLE5=I Think It's Going To Rain Today (Live '85)
TTITLE6=Time Is Tight (Live '85)
EXTD=
EXTT0=
EXTT1=
EXTT2=
EXTT3=
EXTT4=
EXTT5=
EXTT6=
PLAYORDER=
